<svg width="165" height="36" viewBox="0 0 165 36" fill="none" xmlns="http://www.w3.org/2000/svg">
<g id="Group 1584">
<path id="Subtract (Stroke)" fill-rule="evenodd" clip-rule="evenodd" d="M5.50566 1.94595C4.91937 3.6047 3.60471 4.91937 1.94595 5.50566V30.4943C3.60471 31.0806 4.91938 32.3953 5.50566 34.0541H158.927C159.513 32.3953 160.828 31.0806 162.486 30.4943V5.50566C160.828 4.91938 159.513 3.6047 158.927 1.94595H5.50566ZM3.89189 0C3.89189 2.14943 2.14946 3.89189 0 3.89189V32.1081C2.14946 32.1081 3.89189 33.8506 3.89189 36H160.541C160.541 33.8506 162.283 32.1081 164.432 32.1081V3.89189C162.283 3.89189 160.541 2.14943 160.541 0H3.89189Z" fill="#99704B"/>
<path id="Vector 1 (Stroke)" fill-rule="evenodd" clip-rule="evenodd" d="M74.9174 8.81772C75.3654 8.49191 75.9926 8.59096 76.3185 9.03894L80.8566 15.2788L85.3947 9.03894C85.7205 8.59096 86.3477 8.49191 86.7957 8.81772C87.2437 9.14353 87.3428 9.77081 87.017 10.2188L81.6677 17.574C81.479 17.8335 81.1774 17.9871 80.8566 17.9871C80.5357 17.9871 80.2341 17.8335 80.0454 17.574L74.6962 10.2188C74.3703 9.77081 74.4694 9.14353 74.9174 8.81772ZM129.602 8.82648C130.045 9.15884 130.135 9.78751 129.802 10.2307L121.778 20.9292C121.519 21.2745 121.068 21.4154 120.659 21.2789C120.249 21.1424 119.973 20.7591 119.973 20.3274V9.62887C119.973 9.07494 120.422 8.62588 120.976 8.62588C121.53 8.62588 121.979 9.07494 121.979 9.62887V17.3184L128.197 9.02708C128.53 8.58393 129.158 8.49412 129.602 8.82648ZM153.719 8.8632C154.142 9.22101 154.195 9.85387 153.837 10.2767L147.03 18.3214L153.837 26.3661C154.195 26.7889 154.142 27.4218 153.719 27.7796C153.296 28.1374 152.664 28.0847 152.306 27.6618L144.951 18.9693C144.634 18.5953 144.634 18.0475 144.951 17.6735L152.306 8.981C152.664 8.55813 153.296 8.50539 153.719 8.8632ZM148.389 8.87923C148.803 9.24724 148.84 9.8812 148.472 10.2952L143.123 16.3131C142.846 16.6244 142.406 16.7323 142.017 16.5843C141.627 16.4363 141.37 16.0632 141.37 15.6468V9.62887C141.37 9.07494 141.819 8.62588 142.373 8.62588C142.927 8.62588 143.376 9.07494 143.376 9.62887V13.0087L146.973 8.96252C147.341 8.54851 147.975 8.51121 148.389 8.87923ZM11.9849 8.62588C12.5389 8.62588 12.9879 9.07494 12.9879 9.62887V27.014C12.9879 27.5679 12.5389 28.0169 11.9849 28.0169C11.431 28.0169 10.9819 27.5679 10.9819 27.014V9.62887C10.9819 9.07494 11.431 8.62588 11.9849 8.62588ZM14.6595 9.62887C14.6595 9.07494 15.1086 8.62588 15.6625 8.62588H26.6954C27.2493 8.62588 27.6983 9.07494 27.6983 9.62887V27.014C27.6983 27.5679 27.2493 28.0169 26.6954 28.0169C26.1414 28.0169 25.6924 27.5679 25.6924 27.014V10.6319H15.6625C15.1086 10.6319 14.6595 10.1828 14.6595 9.62887ZM31.7103 9.62887C31.7103 9.07494 32.1593 8.62588 32.7133 8.62588H39.3998C42.8964 8.62588 46.4207 11.418 46.4207 15.6468C46.4207 19.8408 43.2673 22.6677 39.3998 22.6677H37.7282V27.014C37.7282 27.5679 37.2791 28.0169 36.7252 28.0169C36.1713 28.0169 35.7222 27.5679 35.7222 27.014V21.6647C35.7222 21.1108 36.1713 20.6617 36.7252 20.6617H39.3998C42.219 20.6617 44.4148 18.6743 44.4148 15.6468C44.4148 12.654 41.9212 10.6319 39.3998 10.6319H33.7163V27.014C33.7163 27.5679 33.2672 28.0169 32.7133 28.0169C32.1593 28.0169 31.7103 27.5679 31.7103 27.014V9.62887ZM58.1222 10.6319C53.8754 10.6319 50.4327 14.0746 50.4327 18.3214C50.4327 22.5682 53.8754 26.011 58.1222 26.011C61.757 26.011 64.805 23.4881 65.606 20.0968C65.7334 19.5577 66.2736 19.2239 66.8127 19.3513C67.3518 19.4786 67.6856 20.0189 67.5583 20.558C66.5482 24.834 62.7081 28.0169 58.1222 28.0169C52.7675 28.0169 48.4267 23.6761 48.4267 18.3214C48.4267 12.9667 52.7675 8.62588 58.1222 8.62588C62.7081 8.62588 66.5482 11.8088 67.5583 16.0849C67.6856 16.624 67.3518 17.1642 66.8127 17.2916C66.2736 17.4189 65.7334 17.0851 65.606 16.546C64.805 13.1547 61.757 10.6319 58.1222 10.6319ZM71.4954 8.62588C72.0493 8.62588 72.4983 9.07494 72.4983 9.62887V27.014C72.4983 27.5679 72.0493 28.0169 71.4954 28.0169C70.9414 28.0169 70.4924 27.5679 70.4924 27.014V9.62887C70.4924 9.07494 70.9414 8.62588 71.4954 8.62588ZM90.2177 8.62588C90.7717 8.62588 91.2207 9.07494 91.2207 9.62887V27.014C91.2207 27.5679 90.7717 28.0169 90.2177 28.0169C89.6638 28.0169 89.2148 27.5679 89.2148 27.014V9.62887C89.2148 9.07494 89.6638 8.62588 90.2177 8.62588ZM96.2357 8.62588C96.7896 8.62588 97.2386 9.07494 97.2386 9.62887V27.014C97.2386 27.5679 96.7896 28.0169 96.2357 28.0169C95.6817 28.0169 95.2327 27.5679 95.2327 27.014V9.62887C95.2327 9.07494 95.6817 8.62588 96.2357 8.62588ZM98.9103 9.62887C98.9103 9.07494 99.3593 8.62588 99.9133 8.62588H110.946C111.5 8.62588 111.949 9.07494 111.949 9.62887V27.014C111.949 27.5679 111.5 28.0169 110.946 28.0169C110.392 28.0169 109.943 27.5679 109.943 27.014V10.6319H99.9133C99.3593 10.6319 98.9103 10.1828 98.9103 9.62887ZM116.964 8.62588C117.518 8.62588 117.967 9.07494 117.967 9.62887V27.014C117.967 27.5679 117.518 28.0169 116.964 28.0169C116.41 28.0169 115.961 27.5679 115.961 27.014V9.62887C115.961 9.07494 116.41 8.62588 116.964 8.62588ZM133.012 8.62588C133.566 8.62588 134.015 9.07494 134.015 9.62887V27.014C134.015 27.5679 133.566 28.0169 133.012 28.0169C132.458 28.0169 132.009 27.5679 132.009 27.014V9.62887C132.009 9.07494 132.458 8.62588 133.012 8.62588ZM138.361 8.62588C138.915 8.62588 139.364 9.07494 139.364 9.62887V27.014C139.364 27.5679 138.915 28.0169 138.361 28.0169C137.807 28.0169 137.358 27.5679 137.358 27.014V9.62887C137.358 9.07494 137.807 8.62588 138.361 8.62588ZM14.9939 13.6408C14.9939 13.0869 15.4429 12.6378 15.9969 12.6378H22.6834C23.2374 12.6378 23.6864 13.0869 23.6864 13.6408V27.014C23.6864 27.5679 23.2374 28.0169 22.6834 28.0169C22.1295 28.0169 21.6804 27.5679 21.6804 27.014V14.6438H16.9998V27.014C16.9998 27.5679 16.5508 28.0169 15.9969 28.0169C15.4429 28.0169 14.9939 27.5679 14.9939 27.014V13.6408ZM35.7222 13.6408C35.7222 13.0869 36.1713 12.6378 36.7252 12.6378H39.0655C40.579 12.6378 42.0745 13.9136 42.0745 15.6468C42.0745 17.3799 40.579 18.6557 39.0655 18.6557H36.7252C36.1713 18.6557 35.7222 18.2067 35.7222 17.6528C35.7222 17.0988 36.1713 16.6498 36.7252 16.6498H39.0655C39.558 16.6498 40.0685 16.1871 40.0685 15.6468C40.0685 15.1065 39.558 14.6438 39.0655 14.6438H36.7252C36.1713 14.6438 35.7222 14.1947 35.7222 13.6408ZM58.1222 14.6438C56.6567 14.6438 55.3893 15.501 54.798 16.7458C54.5603 17.2462 53.962 17.4591 53.4617 17.2214C52.9613 16.9837 52.7484 16.3854 52.9861 15.8851C53.8971 13.9672 55.8534 12.6378 58.1222 12.6378C61.2612 12.6378 63.8058 15.1825 63.8058 18.3214C63.8058 21.4604 61.2612 24.005 58.1222 24.005C55.8534 24.005 53.8971 22.6756 52.9861 20.7578C52.7484 20.2574 52.9613 19.6591 53.4617 19.4214C53.962 19.1837 54.5603 19.3967 54.798 19.897C55.3893 21.1418 56.6567 21.999 58.1222 21.999C60.1533 21.999 61.7998 20.3525 61.7998 18.3214C61.7998 16.2903 60.1533 14.6438 58.1222 14.6438ZM99.2446 13.6408C99.2446 13.0869 99.6937 12.6378 100.248 12.6378H106.934C107.488 12.6378 107.937 13.0869 107.937 13.6408V27.014C107.937 27.5679 107.488 28.0169 106.934 28.0169C106.38 28.0169 105.931 27.5679 105.931 27.014V14.6438H101.251V27.014C101.251 27.5679 100.802 28.0169 100.248 28.0169C99.6937 28.0169 99.2446 27.5679 99.2446 27.014V13.6408ZM75.1971 15.3616C75.6103 15.2273 76.0629 15.3742 76.3185 15.7255L80.8566 21.9654L85.3947 15.7255C85.6502 15.3742 86.1028 15.2273 86.516 15.3616C86.9291 15.496 87.2088 15.881 87.2088 16.3154V27.014C87.2088 27.5679 86.7597 28.0169 86.2058 28.0169C85.6519 28.0169 85.2028 27.5679 85.2028 27.014V19.3998L81.6677 24.2606C81.479 24.5201 81.1774 24.6737 80.8566 24.6737C80.5357 24.6737 80.2341 24.5201 80.0454 24.2606L76.5103 19.3998V27.014C76.5103 27.5679 76.0612 28.0169 75.5073 28.0169C74.9534 28.0169 74.5043 27.5679 74.5043 27.014V16.3154C74.5043 15.881 74.784 15.496 75.1971 15.3616ZM129.317 15.3639C129.727 15.5004 130.003 15.8837 130.003 16.3154V27.014C130.003 27.5679 129.554 28.0169 129 28.0169C128.446 28.0169 127.997 27.5679 127.997 27.014V19.3244L121.778 27.6157C121.446 28.0589 120.817 28.1487 120.374 27.8163C119.931 27.484 119.841 26.8553 120.174 26.4122L128.197 15.7136C128.456 15.3683 128.907 15.2274 129.317 15.3639ZM142.029 19.7195C142.425 19.5751 142.869 19.6934 143.14 20.0156L148.489 26.3679C148.846 26.7916 148.792 27.4243 148.368 27.7811C147.945 28.138 147.312 28.0837 146.955 27.66L143.376 23.4099V27.014C143.376 27.5679 142.927 28.0169 142.373 28.0169C141.819 28.0169 141.37 27.5679 141.37 27.014V20.6617C141.37 20.2404 141.633 19.864 142.029 19.7195Z" fill="#99704B"/>
</g>
</svg>
