<svg width="58" height="58" viewBox="0 0 58 58" fill="none" xmlns="http://www.w3.org/2000/svg">
<g id="Group 156">
<circle id="Ellipse 6" cx="28.7461" cy="28.7461" r="28.7461" fill="white"/>
<path id="Vector 6" d="M37.1152 29.8822C37.9437 29.8822 38.6152 29.2106 38.6152 28.3822C38.6152 27.5538 37.9437 26.8822 37.1152 26.8822V29.8822ZM17.8609 27.3215C17.2751 27.9073 17.2751 28.8571 17.8609 29.4429L27.4068 38.9888C27.9926 39.5746 28.9423 39.5746 29.5281 38.9888C30.1139 38.403 30.1139 37.4533 29.5281 36.8675L21.0428 28.3822L29.5281 19.8969C30.1139 19.3111 30.1139 18.3614 29.5281 17.7756C28.9423 17.1898 27.9926 17.1898 27.4068 17.7756L17.8609 27.3215ZM37.1152 26.8822L18.9215 26.8822V29.8822L37.1152 29.8822V26.8822Z" fill="#618B7E"/>
</g>
</svg>
