<svg width="58" height="58" viewBox="0 0 58 58" fill="none" xmlns="http://www.w3.org/2000/svg">
<circle cx="28.7461" cy="28.7461" r="28.7461" transform="matrix(-1 0 0 1 57.4922 0)" fill="white"/>
<path d="M20.377 29.8822C19.5485 29.8822 18.877 29.2106 18.877 28.3822C18.877 27.5538 19.5485 26.8822 20.377 26.8822V29.8822ZM39.6313 27.3215C40.2171 27.9073 40.2171 28.8571 39.6313 29.4429L30.0854 38.9888C29.4996 39.5746 28.5499 39.5746 27.9641 38.9888C27.3783 38.403 27.3783 37.4533 27.9641 36.8675L36.4494 28.3822L27.9641 19.8969C27.3783 19.3111 27.3783 18.3614 27.9641 17.7756C28.5499 17.1898 29.4996 17.1898 30.0854 17.7756L39.6313 27.3215ZM20.377 26.8822L38.5707 26.8822V29.8822L20.377 29.8822V26.8822Z" fill="#618B7E"/>
</svg>
