<svg width="48" height="49" viewBox="0 0 48 49" fill="none" xmlns="http://www.w3.org/2000/svg">
<g clip-path="url(#clip0_3488_702)">
<path d="M46.002 2.93994L2.00195 46.9399" stroke="#99704B" stroke-width="4"/>
</g>
<rect x="1.5" y="2.44092" width="45" height="45" rx="22.5" stroke="#99704B" stroke-width="3"/>
<path fill-rule="evenodd" clip-rule="evenodd" d="M34.4415 21.4385C34.4415 29.5244 25.1615 39.9985 24.0015 39.9985C23.8934 39.9985 23.7147 39.9075 23.4795 39.7358C20.4159 37.5 21.0819 32.8603 23.7637 30.1785L33.0206 20.9216C33.5536 20.3886 34.4415 20.6847 34.4415 21.4385ZM32.8669 18.2469C33.3446 17.7692 33.4987 17.0446 33.1756 16.4514C31.4059 13.2029 27.9612 10.9985 24.0015 10.9985C18.2357 10.9985 13.5615 15.6727 13.5615 21.4385C13.5615 24.5102 14.9007 27.9266 16.6253 30.9825C17.272 32.1284 18.8269 32.2869 19.7573 31.3565L24.3398 26.7739C24.5738 26.54 24.3324 26.0785 24.0015 26.0785C21.4389 26.0785 19.3615 24.0011 19.3615 21.4385C19.3615 18.8759 21.4389 16.7985 24.0015 16.7985C26.5641 16.7985 28.6415 18.8759 28.6415 21.4385C28.6415 21.7694 29.103 22.0108 29.3369 21.7769L32.8669 18.2469Z" fill="#99704B"/>
<defs>
<clipPath id="clip0_3488_702">
<rect y="0.940918" width="48" height="48" rx="24" fill="white"/>
</clipPath>
</defs>
</svg>
